<?xml version="1.0" standalone="no"?>
<!DOCTYPE svg PUBLIC "-//W3C//DTD SVG 20010904//EN"
 "http://www.w3.org/TR/2001/REC-SVG-20010904/DTD/svg10.dtd">
<svg version="1.0" xmlns="http://www.w3.org/2000/svg"
 width="1064.000000pt" height="1330.000000pt" viewBox="0 0 1064.000000 1330.000000"
 preserveAspectRatio="xMidYMid meet">

<g transform="translate(0.000000,1330.000000) scale(0.100000,-0.100000)"
fill="#000000" stroke="none">
<path d="M6329 10777 c-25 -23 -81 -74 -125 -113 -43 -40 -93 -85 -110 -100
-16 -16 -72 -67 -124 -114 -99 -89 -120 -109 -185 -168 -22 -21 -112 -102
-200 -182 -88 -80 -162 -147 -165 -150 -3 -3 -59 -54 -125 -114 -66 -60 -124
-114 -130 -120 -5 -6 -30 -29 -55 -50 -25 -22 -88 -78 -140 -126 -52 -48 -153
-140 -225 -205 -238 -216 -335 -307 -335 -314 0 -3 89 -46 198 -95 108 -49
292 -137 409 -197 116 -59 213 -106 215 -104 5 6 389 82 548 109 497 85 1060
146 1341 146 l115 0 22 -47 c12 -27 43 -100 71 -163 27 -63 72 -167 101 -230
29 -63 61 -135 72 -160 11 -25 36 -79 55 -120 176 -374 228 -484 333 -705 19
-38 38 -73 44 -77 10 -7 38 14 121 91 28 25 73 66 100 90 28 24 75 67 105 96
30 28 107 98 170 155 63 57 133 120 155 141 22 20 69 63 105 95 151 138 205
190 208 200 3 11 -19 34 -367 389 -108 110 -351 359 -541 554 -190 195 -370
380 -400 411 -30 31 -145 148 -255 261 -110 112 -366 374 -569 582 -202 207
-373 377 -380 377 -6 0 -32 -20 -57 -43z"/>
<path d="M8246 10752 c17 -36 21 -38 21 -17 0 8 -9 22 -19 32 -17 16 -17 15
-2 -15z"/>
<path d="M8284 10732 c4 -7 2 -20 -5 -30 -11 -14 -11 -15 1 -4 21 18 28 15 25
-13 -2 -13 0 -23 4 -22 8 2 151 -142 259 -262 37 -40 72 -79 79 -86 7 -7 47
-53 88 -101 42 -49 84 -98 94 -109 10 -11 57 -72 104 -135 48 -63 92 -121 97
-127 35 -42 230 -351 297 -468 463 -819 681 -1753 623 -2670 -14 -224 -45
-466 -81 -630 -117 -533 -254 -904 -501 -1355 -36 -65 -180 -298 -220 -355
-16 -22 -47 -67 -70 -99 -22 -33 -47 -66 -54 -75 -7 -9 -52 -65 -100 -126
-295 -374 -713 -750 -1109 -999 -61 -38 -126 -79 -145 -91 -19 -13 -80 -47
-135 -77 -322 -174 -594 -285 -935 -382 -788 -222 -1617 -219 -2405 9 -250 73
-573 198 -750 291 -33 17 -94 48 -135 70 -136 69 -347 201 -545 341 -58 41
-283 220 -334 267 -192 175 -310 294 -441 446 -36 41 -73 83 -84 95 -85 93
-304 403 -422 596 -138 226 -360 701 -423 904 -12 39 -26 77 -30 85 -4 8 -22
62 -40 120 -18 58 -43 137 -56 175 -13 39 -30 96 -39 128 -9 32 -21 55 -25 52
-5 -2 -11 7 -14 20 -2 14 0 28 5 31 10 6 1 24 -12 24 -5 0 -10 -8 -13 -17 -2
-10 -4 3 -3 29 1 40 -16 81 -27 67 -5 -5 35 -233 63 -364 55 -250 164 -586
279 -858 27 -65 47 -126 44 -135 -4 -15 -3 -15 6 -2 9 13 11 13 11 0 4 -97 13
-136 29 -125 5 2 6 -6 4 -18 -2 -12 9 -47 26 -79 17 -32 31 -66 31 -76 0 -10
4 -22 9 -27 4 -6 28 -48 53 -95 79 -149 99 -182 183 -310 337 -509 770 -942
1285 -1287 512 -342 1104 -584 1710 -697 783 -147 1624 -93 2367 152 1090 361
1996 1089 2602 2090 377 624 602 1323 683 2122 17 164 16 687 0 855 -60 602
-210 1140 -449 1619 -107 215 -229 423 -255 434 -5 2 -8 8 -8 13 0 9 -71 106
-115 157 -11 12 -25 22 -32 22 -6 0 -16 8 -22 18 -5 9 -11 15 -14 12 -2 -3
-58 68 -125 157 -201 269 -445 534 -677 737 -146 127 -225 190 -211 168z m57
-59 c13 -17 13 -17 -6 -3 -11 8 -22 16 -24 17 -2 2 0 3 6 3 6 0 17 -8 24 -17z"/>
<path d="M2400 9953 c-19 -3 -39 -8 -43 -13 -5 -4 -4 -32 2 -61 12 -61 39
-245 52 -359 4 -41 13 -109 19 -150 13 -89 26 -200 40 -330 5 -52 14 -135 20
-185 15 -135 28 -262 45 -445 8 -91 17 -178 20 -195 2 -16 7 -66 10 -110 3
-44 10 -116 15 -160 5 -44 12 -123 15 -175 4 -52 8 -113 11 -135 2 -22 7 -79
11 -127 3 -49 9 -88 13 -88 4 0 37 27 73 61 37 33 71 58 76 55 5 -3 12 -50 16
-104 3 -53 10 -144 15 -202 27 -300 65 -1008 76 -1410 4 -135 7 -258 8 -274
l1 -29 326 2 c180 1 380 -2 445 -8 66 -6 180 -15 254 -22 74 -6 182 -17 240
-25 58 -8 170 -23 249 -34 79 -11 181 -26 225 -35 45 -8 144 -26 221 -40 283
-52 667 -143 687 -163 5 -5 -17 -32 -51 -62 -34 -28 -61 -58 -61 -66 0 -7 18
-19 40 -25 25 -8 57 -30 83 -58 144 -152 240 -220 384 -268 70 -24 93 -27 228
-27 122 -1 156 2 181 16 47 26 88 73 125 144 19 36 41 71 49 78 31 27 577 125
980 176 519 67 1048 72 1479 14 31 -4 52 -3 50 2 -9 20 -211 430 -219 444 -13
23 -80 158 -175 355 -48 99 -140 288 -205 420 -131 268 -233 477 -387 794 -57
118 -106 217 -108 220 -3 3 -29 -19 -58 -47 -58 -58 -73 -63 -86 -29 -5 12
-32 72 -61 132 -29 61 -84 180 -122 265 -39 85 -81 179 -94 208 -13 29 -24 54
-24 56 0 3 -15 37 -34 78 -53 115 -178 401 -235 540 -50 119 -55 126 -84 131
-46 8 -381 0 -527 -13 -403 -35 -947 -121 -1262 -201 -42 -10 -87 -19 -100
-19 -13 0 -82 32 -154 71 -281 154 -763 389 -796 389 -13 0 -46 -22 -78 -51
-162 -150 -295 -272 -370 -339 -46 -41 -91 -82 -100 -90 -9 -8 -90 -82 -180
-165 -91 -82 -187 -170 -213 -195 -27 -25 -52 -46 -57 -48 -5 -2 -11 12 -14
30 -3 18 -12 83 -21 143 -8 61 -20 135 -25 165 -5 30 -17 98 -25 150 -20 117
-29 167 -54 300 -11 58 -23 121 -26 140 -3 19 -10 53 -15 75 -57 254 -74 322
-83 333 -18 23 5 34 49 23 146 -36 271 -74 359 -107 39 -15 93 -34 120 -44 64
-23 211 -79 250 -96 17 -7 80 -33 140 -59 120 -51 154 -66 262 -115 l72 -32
45 37 c25 21 46 41 46 46 0 11 -50 32 -335 145 -132 52 -249 99 -260 103 -11
5 -40 17 -65 26 -25 10 -64 26 -87 36 -24 11 -49 19 -57 19 -9 0 -66 20 -128
44 -62 24 -140 51 -173 60 -33 10 -96 30 -140 45 -44 16 -100 34 -125 41 -25
8 -49 17 -55 21 -14 10 -75 22 -75 14 0 -5 69 -364 99 -515 24 -117 88 -484
107 -605 9 -60 20 -132 25 -160 4 -27 17 -111 28 -185 11 -74 24 -147 28 -162
l8 -27 57 50 c32 28 62 48 66 45 5 -3 12 -31 15 -63 3 -32 22 -173 42 -313 52
-367 165 -1237 186 -1435 5 -49 14 -94 19 -99 5 -5 42 -10 82 -12 249 -8 480
-35 813 -95 157 -28 235 -45 525 -116 186 -45 480 -129 673 -193 l188 -62 130
47 c72 25 135 45 141 43 5 -2 -49 -57 -121 -123 -179 -163 -170 -169 99 -65
619 239 1267 380 1520 330 25 -5 48 -5 52 -1 8 7 -14 130 -27 150 -4 7 -55 11
-138 11 -299 0 -731 -87 -1205 -241 -68 -22 -127 -37 -130 -34 -4 4 7 18 23
32 26 22 288 259 319 288 10 9 742 675 1145 1042 81 73 151 132 156 133 6 0
41 -67 79 -148 183 -387 678 -1357 786 -1537 9 -16 29 -50 42 -75 14 -25 40
-71 58 -103 18 -32 30 -60 28 -63 -3 -2 -77 0 -164 6 -623 40 -1360 -35 -2014
-204 -253 -65 -251 -64 -270 -117 -38 -112 -86 -140 -243 -140 -145 -1 -238
29 -322 103 -52 45 -217 237 -213 248 2 5 62 62 133 126 72 65 130 122 130
128 0 30 -908 286 -1190 335 -27 5 -129 25 -225 44 -372 75 -707 120 -980 130
l-65 2 -7 155 c-11 270 -66 818 -118 1185 -6 39 -26 183 -46 320 -19 138 -38
253 -42 257 -6 6 -78 -57 -301 -264 -41 -37 -76 -67 -77 -65 -3 2 -24 208 -54
532 -15 153 -31 287 -101 855 -6 47 -14 112 -19 145 -5 33 -14 92 -20 130 -5
39 -17 113 -26 165 -8 52 -20 124 -25 160 -5 36 -19 117 -30 180 -12 63 -23
126 -25 140 -11 93 -19 101 -84 93z m3040 -1713 c-119 -26 -191 -55 -295 -118
-98 -61 -195 -154 -252 -242 -78 -119 -167 -327 -196 -455 -3 -11 -5 -3 -6 17
-1 44 17 139 30 153 5 5 9 19 9 32 0 20 38 115 61 153 5 8 13 24 18 35 23 52
121 185 166 225 27 25 59 53 70 63 41 38 162 103 240 129 62 21 98 27 160 27
l80 0 -85 -19z m353 -221 c3 -12 2 -29 -3 -38 -14 -24 -47 -102 -55 -131 -4
-14 -19 -42 -32 -64 -20 -32 -24 -48 -21 -95 2 -31 8 -64 13 -74 7 -16 4 -19
-21 -17 -68 5 -70 -5 -14 -61 38 -39 49 -58 33 -60 -5 -1 -25 -2 -45 -3 -43
-2 -59 -13 -32 -21 44 -14 84 -39 89 -56 4 -13 16 -19 34 -19 16 0 36 -9 47
-21 10 -12 34 -28 52 -36 25 -10 32 -19 32 -41 0 -16 6 -37 14 -47 21 -29 4
-68 -59 -132 -31 -32 -70 -80 -86 -108 -26 -46 -29 -58 -29 -148 0 -59 -5
-105 -12 -117 -10 -15 -10 -31 0 -77 24 -109 26 -133 9 -133 -15 0 -27 28 -27
66 0 12 -7 28 -16 35 -12 10 -15 24 -10 60 4 28 0 73 -9 115 -9 38 -19 94 -22
124 -3 30 -10 60 -15 66 -9 12 -23 80 -38 184 -9 60 -26 137 -41 186 -5 17 -9
38 -9 47 0 29 17 19 24 -14 12 -59 22 -19 14 53 -10 86 1 145 44 231 16 32 46
98 67 146 58 131 103 221 111 221 4 0 10 -10 13 -21z m-334 -23 c39 -21 62
-60 60 -104 -4 -101 -43 -137 -115 -106 -65 28 -67 29 -77 58 -13 38 5 96 42
135 32 35 49 38 90 17z m394 -102 c10 -49 23 -105 28 -124 33 -129 71 -329 64
-341 -3 -5 -1 -19 6 -31 6 -12 17 -60 24 -107 23 -151 -6 -242 -104 -334 -81
-76 -85 -88 -87 -267 -1 -126 -4 -154 -15 -152 -29 7 -31 23 -20 159 20 236
22 242 106 324 59 57 76 80 85 118 16 62 14 179 -4 249 -8 31 -34 152 -56 267
-23 116 -48 235 -56 265 -17 66 -17 73 -2 68 6 -2 20 -44 31 -94z m-255 -74
c5 -59 -18 -132 -51 -155 -30 -21 -84 -19 -123 6 -47 28 -47 55 -1 33 24 -12
42 -13 67 -7 50 13 73 51 78 129 5 77 22 74 30 -6z m-488 13 c17 -25 21 -38
12 -41 -6 -2 -12 -18 -13 -35 -1 -30 -1 -31 -8 -7 -5 14 -15 40 -24 57 -35 67
-9 88 33 26z m684 -53 c3 -25 3 -39 0 -32 -9 19 -21 14 -28 -10 -4 -17 -8 -20
-17 -11 -7 7 -8 19 -4 30 5 10 7 26 6 36 -3 22 19 51 30 40 4 -4 10 -28 13
-53z m-654 -115 c5 -13 11 -63 15 -112 4 -68 9 -91 23 -103 14 -11 22 -41 31
-119 11 -93 10 -123 -4 -109 -3 2 -9 25 -14 49 -5 24 -16 69 -24 99 -8 30 -18
84 -22 120 -4 36 -11 70 -16 76 -5 6 -12 39 -16 74 -5 48 -3 61 6 56 7 -5 16
-18 21 -31z m679 2 c9 -12 7 -16 -10 -20 -29 -8 -51 3 -45 20 3 8 6 19 6 24 0
12 32 -4 49 -24z m-468 -34 c71 -54 122 -125 87 -119 -40 5 -178 67 -178 79 0
5 7 7 15 4 21 -9 27 8 16 48 -5 19 -8 35 -5 35 2 0 31 -21 65 -47z m477 -35
c14 -14 15 -57 2 -78 -8 -13 -15 -10 -41 17 l-33 32 25 20 c28 24 31 25 47 9z
m-351 -270 c4 -49 3 -68 -6 -68 -6 0 -14 7 -17 15 -4 8 -12 15 -20 15 -8 0
-13 6 -11 13 1 7 -7 11 -20 9 -13 -2 -23 2 -23 7 0 6 -9 11 -20 11 -11 0 -20
6 -20 14 0 8 -7 16 -15 20 -8 3 -14 11 -13 18 2 7 -15 17 -40 23 -83 21 -44
40 89 44 40 1 76 5 79 7 10 11 32 -62 37 -128z m-785 40 c-9 -9 -12 -7 -12 12
0 19 3 21 12 12 9 -9 9 -15 0 -24z m823 -185 c32 -76 58 -263 36 -263 -5 0
-15 7 -22 16 -8 9 -51 35 -96 57 -46 22 -83 43 -83 46 0 3 21 29 46 56 25 28
57 67 71 88 14 20 27 37 29 37 2 0 11 -17 19 -37z m-177 -201 c15 -10 56 -31
92 -46 131 -55 190 -106 190 -165 0 -33 -13 -25 -40 25 -23 43 -32 50 -123 89
-89 38 -167 89 -167 107 0 13 21 9 48 -10z m299 -274 c-3 -7 -5 -2 -5 12 0 14
2 19 5 13 2 -7 2 -19 0 -25z m416 -284 c3 -3 1 -18 -6 -32 -6 -15 -11 -28 -12
-28 0 -1 -15 -5 -32 -9 -29 -6 -33 -4 -33 13 0 33 63 75 83 56z m163 -24 c13
0 24 -4 24 -8 0 -11 -68 -32 -100 -32 l-23 0 23 25 c13 14 30 23 38 20 7 -3
25 -5 38 -5z m-423 -27 c2 -5 -2 -22 -9 -40 -12 -28 -18 -32 -49 -31 -43 2
-44 11 -6 49 28 28 55 37 64 22z m-168 -32 c-3 -6 -11 -11 -17 -11 -6 0 -6 6
2 15 14 17 26 13 15 -4z m247 -23 c-7 -7 -12 -8 -12 -2 0 14 12 26 19 19 2 -3
-1 -11 -7 -17z m-362 -13 c-17 -21 -50 -25 -57 -8 -8 20 12 31 43 25 18 -3 22
-8 14 -17z m776 -36 c10 -18 -29 -72 -73 -99 -48 -31 -139 -55 -166 -45 -11 5
-15 17 -13 43 2 34 5 38 51 55 27 10 60 26 74 37 27 19 117 25 127 9z m-320
-105 c6 -29 3 -33 -38 -53 -52 -25 -138 -39 -138 -23 0 6 8 15 18 21 16 9 16
10 0 16 -30 12 -20 33 25 50 23 9 53 25 67 35 24 18 26 18 42 2 10 -9 20 -31
24 -48z m-301 -30 c23 -43 15 -61 -38 -87 -45 -22 -98 -32 -133 -23 -24 6 -25
8 -10 25 9 10 16 27 16 39 0 16 6 22 20 22 26 0 72 23 89 44 20 24 35 19 56
-20z"/>
<path d="M5570 7281 c0 -28 5 -51 10 -51 6 0 10 20 10 44 0 25 -4 48 -10 51
-6 4 -10 -13 -10 -44z"/>
<path d="M5596 7182 c-3 -5 -1 -22 4 -38 8 -29 8 -29 9 9 1 36 -3 45 -13 29z"/>
<path d="M5620 7030 c0 -22 5 -40 10 -40 6 0 10 18 10 40 0 22 -4 40 -10 40
-5 0 -10 -18 -10 -40z"/>
<path d="M5640 6940 c0 -25 5 -52 10 -60 7 -11 10 -3 10 30 0 25 -5 52 -10 60
-7 11 -10 3 -10 -30z"/>
<path d="M5670 6794 c0 -27 4 -43 10 -39 6 3 10 24 10 46 0 21 -4 39 -10 39
-5 0 -10 -21 -10 -46z"/>
<path d="M9281 9693 c8 -14 16 -18 20 -11 4 6 10 2 14 -11 3 -11 11 -21 16
-21 5 0 2 11 -7 25 -9 14 -19 23 -22 20 -3 -2 -12 1 -20 8 -13 11 -14 9 -1
-10z"/>
<path d="M2425 7223 c-99 -90 -214 -195 -254 -231 -41 -37 -104 -94 -140 -128
-37 -33 -93 -85 -126 -114 -70 -63 -123 -112 -214 -196 -59 -54 -187 -170
-370 -336 -35 -32 -61 -63 -59 -72 1 -8 80 -93 173 -188 94 -95 330 -337 525
-537 620 -637 894 -917 1377 -1411 127 -129 274 -281 328 -337 77 -82 100
-101 114 -93 9 5 59 48 111 96 172 158 293 269 319 292 14 12 37 33 51 45 50
47 798 726 964 876 94 85 171 159 171 165 0 36 -650 192 -966 231 -25 3 -57 7
-70 10 -85 13 -377 40 -574 52 -134 9 -773 11 -935 3 l-105 -5 -11 210 c-7
116 -17 309 -24 430 -6 121 -18 319 -26 440 -8 121 -19 290 -24 375 -28 437
-41 590 -49 589 -3 0 -87 -75 -186 -166z"/>
<path d="M792 6340 c0 -14 2 -19 5 -12 2 6 2 18 0 25 -3 6 -5 1 -5 -13z"/>
<path d="M802 6280 c0 -14 2 -19 5 -12 2 6 2 18 0 25 -3 6 -5 1 -5 -13z"/>
<path d="M851 6194 c0 -11 3 -14 6 -6 3 7 2 16 -1 19 -3 4 -6 -2 -5 -13z"/>
<path d="M5313 4891 c-32 -30 -34 -48 -3 -31 14 7 26 0 59 -40 22 -27 41 -50
41 -53 0 -2 -41 7 -91 20 l-91 25 -39 -38 c-42 -41 -51 -61 -20 -45 16 9 30
-3 100 -84 73 -85 80 -97 69 -115 -7 -11 -19 -22 -28 -26 -9 -3 -71 23 -147
63 -72 37 -134 65 -137 62 -4 -3 17 -71 45 -150 47 -133 53 -177 25 -170 -4 1
-14 -6 -21 -15 -12 -17 -15 -16 -50 15 -31 27 -44 32 -70 28 l-33 -5 15 29
c28 57 -11 110 -71 95 -29 -7 -174 -135 -175 -155 -1 -11 2 -11 15 0 15 12 23
7 66 -41 105 -116 121 -139 109 -154 -7 -8 -8 -16 -4 -19 11 -6 118 91 110 99
-4 4 -13 2 -21 -5 -11 -9 -22 -2 -56 38 -23 28 -39 55 -35 61 12 19 51 10 79
-19 15 -16 36 -31 46 -34 26 -7 75 20 90 49 7 13 19 24 25 24 16 0 70 58 62
66 -4 4 -13 1 -22 -6 -12 -10 -16 -8 -25 15 -14 38 -14 40 23 68 30 23 35 24
61 10 22 -12 25 -17 15 -29 -6 -8 -9 -17 -6 -20 2 -3 47 36 98 86 73 70 88 89
68 85 -23 -6 -34 3 -93 70 -37 43 -66 79 -64 81 3 2 64 -12 136 -31 143 -38
152 -39 152 -26 0 5 -40 56 -90 113 -56 65 -86 106 -80 112 12 12 13 26 3 26
-5 0 -22 -14 -40 -29z m-189 -392 c20 -12 36 -22 36 -23 0 -1 -11 -12 -25 -24
l-25 -22 -9 22 c-16 44 -22 68 -17 68 3 0 21 -9 40 -21z m-255 -123 c17 -18
22 -32 17 -49 -10 -40 -33 -40 -70 1 -32 34 -33 38 -19 55 22 24 45 21 72 -7z"/>
<path d="M4566 4201 c-3 -5 17 -73 45 -152 40 -113 48 -148 40 -161 -19 -30
12 -22 44 12 29 30 29 54 0 30 -12 -10 -16 -8 -25 15 -14 37 -14 38 19 69 28
27 29 27 61 11 23 -12 29 -19 20 -25 -7 -4 -11 -12 -9 -18 4 -12 109 74 109
90 0 5 -9 7 -20 3 -18 -6 -87 26 -237 111 -23 13 -44 20 -47 15z m99 -128 c42
-20 43 -26 10 -47 -31 -21 -32 -20 -39 8 -3 13 -9 31 -12 40 -8 20 -3 20 41
-1z"/>
<path d="M4376 4017 c-96 -89 -98 -95 -47 -141 26 -23 37 -16 21 14 -13 25
-10 75 6 75 6 0 48 -42 93 -94 75 -87 80 -95 65 -112 -8 -9 -11 -19 -6 -23 11
-7 128 111 119 120 -4 4 -15 0 -24 -9 -17 -14 -23 -10 -83 60 -104 120 -105
122 -85 130 10 3 33 0 52 -6 48 -18 53 -6 13 34 l-35 34 -89 -82z"/>
<path d="M4176 3836 c-96 -91 -97 -94 -42 -145 29 -27 32 -18 17 36 -6 22 -6
36 2 47 10 13 25 0 95 -81 76 -89 81 -98 66 -114 -11 -12 -12 -19 -4 -24 14
-9 132 104 124 117 -4 5 -14 2 -24 -7 -17 -15 -23 -10 -103 82 -78 90 -83 99
-65 108 15 6 29 4 51 -8 45 -26 51 -7 11 36 -19 20 -35 37 -37 37 -1 -1 -42
-38 -91 -84z"/>
<path d="M4040 3705 c-33 -34 -36 -61 -5 -35 14 12 23 6 63 -40 71 -80 101
-127 95 -150 -6 -22 -48 -60 -67 -60 -12 0 -75 63 -134 133 -27 32 -30 40 -20
57 27 43 -6 30 -59 -23 -32 -31 -54 -59 -50 -63 3 -4 13 -2 21 5 11 9 26 -4
81 -68 71 -84 102 -103 149 -90 58 16 115 94 102 142 -3 13 -37 59 -75 103
-54 61 -67 83 -60 96 22 41 2 37 -41 -7z"/>
</g>
</svg>
